<?xml version="1.0" encoding="UTF-8"?>
<svg version="1.1" xmlns="http://www.w3.org/2000/svg" width="512" height="512">
<path d="M0 0 C3.46540257 2.8550577 5.20913633 6.01396357 7.1875 10 C17.5731072 29.73265367 33.00519633 44.20579177 54 52 C64.17068634 55.08565037 74.23680432 56.44847415 84.83984375 56.62890625 C88 57 88 57 89.8828125 58.38671875 C91.50755239 60.73293404 91.9344835 62.11727391 92 65 C89.65904625 69.53733554 86.91583099 73.59409763 83.88842773 77.6953125 C78.85655632 84.52677399 74.39188126 91.49009866 70.4375 99 C70.03257324 99.7640918 69.62764648 100.52818359 69.21044922 101.31542969 C63.91406945 111.64774835 59.52529884 123.82058525 62.671875 135.4921875 C63.37537488 137.35712586 64.17778364 139.1842722 65 141 C73.33202412 142.84215019 79.14289189 139.35648794 86 135 C92.50471727 130.27167138 96.9930779 125.23135957 100.6484375 118.06640625 C102.21222835 115.6755237 103.33605208 114.95695216 106 114 C108.8125 113.875 108.8125 113.875 112 115 C113.51953125 116.64453125 113.51953125 116.64453125 115.125 118.6875 C121.51801572 126.60063279 131.96476305 130.17588654 141.8046875 131.51953125 C152.34104666 132.38981386 161.69422497 131.13591192 172 129 C179.95449293 127.55565949 179.95449293 127.55565949 183.5 129.0625 C185.61625299 131.79599345 185.82117683 133.53083049 186 137 C185.06921939 139.98006542 183.69779373 142.70762275 182.3125 145.5 C175.5192976 160.00919364 170.31718517 175.20180639 174.91015625 191.203125 C176.9509609 196.44045879 180.12171044 200.71166131 183.6640625 205.02734375 C185.70781803 208.0451699 185.38631335 210.45879433 185 214 C182.54000517 217.59888133 178.44073617 218.42361926 174.5 219.75 C166.68731042 222.52047611 157.10142176 226.12265667 152 233 C152.57899303 241.4294574 163.59321046 250.35356184 169.36669922 255.61376953 C176.11279649 261.33938094 183.7690277 266.10021633 191.8125 269.75 C195.1170605 271.31155604 195.83422032 271.71580626 197.75 275 C198.04557416 278.54688986 197.76822967 279.91261485 196 283 C193.54409626 284.60600865 191.22755521 285.93777721 188.625 287.25 C175.70886912 294.1618362 163.21085391 301.88932218 158.5690918 316.53417969 C157.61688752 320.6599897 157.76161654 324.66707127 157.9375 328.875 C157.99746669 330.53875681 158.04863437 332.20286045 158.08984375 333.8671875 C158.11941162 334.59019043 158.14897949 335.31319336 158.17944336 336.05810547 C158 338 158 338 156 341 C139.25386813 346.58204396 117.43737427 336.99434326 101.2578125 332.15625 C88.36566083 327.75968554 88.36566083 327.75968554 75 327 C71.47755907 328.91437007 70.29133726 330.33408627 68.6875 334 C67.63746049 338.39107431 67.98974011 342.85159042 68.22265625 347.328125 C68 350 68 350 66.99609375 351.859375 C63.71884611 353.73208794 60.60846927 353.61340848 57 353 C53.7371127 351.80313304 50.77452441 350.20267927 47.75 348.5 C46.91662109 348.04439697 46.08324219 347.58879395 45.22460938 347.11938477 C30.58265709 339.0087526 17.85039262 329.20700529 6.21484375 317.1875 C4.19890191 314.97014707 4.19890191 314.97014707 2 314 C1.98786972 315.92559502 1.98786972 315.92559502 1.97549438 317.89009094 C1.89810563 329.97120149 1.81038485 342.05219842 1.71247292 354.13316059 C1.66246609 360.34452888 1.61613643 366.55587979 1.578125 372.76733398 C1.54132766 378.75851866 1.49498284 384.74955949 1.44193649 390.74062157 C1.42336299 393.02959871 1.40826605 395.31860672 1.39665604 397.60762978 C1.37984421 400.80668585 1.3508213 404.00541036 1.31884766 407.2043457 C1.31560738 408.63285606 1.31560738 408.63285606 1.31230164 410.09022522 C1.30113815 410.96100708 1.28997467 411.83178894 1.2784729 412.72895813 C1.27294214 413.48575017 1.26741138 414.24254221 1.26171303 415.02226734 C1 417 1 417 -1 420 C-2.65 419.67 -4.3 419.34 -6 419 C-6.33 384.35 -6.66 349.7 -7 314 C-11.26098039 316.55658823 -13.52632859 318.41327522 -16.8125 321.9375 C-28.44344638 333.90633312 -42.27475541 342.35952513 -57 350 C-58.07636719 350.57878906 -59.15273437 351.15757812 -60.26171875 351.75390625 C-64.23941039 353.56401129 -66.66621591 353.42627385 -71 353 C-72.73828125 351.8671875 -72.73828125 351.8671875 -74 350 C-74.1875 347.109375 -74.1875 347.109375 -74 343.75 C-73.88267498 338.20484906 -74.03067401 334.70996536 -77 330 C-79.21135457 327.85565617 -80.7159375 327.04789607 -83.81958008 326.93212891 C-93.06674837 327.64431787 -101.8008318 330.69124638 -110.625 333.375 C-146.5937928 344.30079502 -146.5937928 344.30079502 -160 342 C-162.38671875 340.546875 -162.38671875 340.546875 -164 338 C-164.40354906 334.91901394 -164.23755312 331.90830236 -164.0625 328.8125 C-163.52751524 318.7436077 -165.25673447 311.11691863 -171.8125 303.25 C-179.01982972 295.83674657 -187.78845084 290.74492542 -196.83178711 285.91796875 C-201.90315818 283.19368364 -201.90315818 283.19368364 -203 281 C-203.46730852 274.57450788 -203.46730852 274.57450788 -201.69946289 272.40112305 C-198.89058168 270.0853395 -195.63552823 268.52081848 -192.4375 266.8125 C-179.35367168 259.60827101 -165.54162679 249.19784688 -158 236 C-158.22892084 233.49161208 -158.68034686 232.33454109 -160.42578125 230.5078125 C-168.84832927 224.33476488 -178.01214447 220.09045931 -187.91796875 216.859375 C-190 216 -190 216 -191 214 C-191.79529004 209.84681869 -191.63340475 207.98987906 -189.3203125 204.375 C-187.87951583 202.47504835 -186.43139488 200.58063204 -184.9765625 198.69140625 C-179.45088255 191.16730846 -178.47824687 182.59196592 -179.33203125 173.44140625 C-181.19780923 161.48838989 -185.34921874 149.57952342 -191.12280273 138.92871094 C-192.46194453 135.98431345 -191.90580566 134.040919 -191 131 C-189.5 129.0625 -189.5 129.0625 -187 128 C-182.52705707 127.94621712 -178.25282797 128.91703455 -173.9375 130 C-158.15405783 133.58963702 -141.94815425 132.51174275 -127.55078125 124.7578125 C-124.24068032 122.47673223 -121.98725615 119.78472619 -119.51953125 116.64453125 C-118 115 -118 115 -114.8125 113.875 C-111.77185402 114.01013982 -110.52817963 114.3600997 -108 116 C-106.39453125 118.3203125 -106.39453125 118.3203125 -104.8125 121.125 C-98.52753498 131.28171562 -89.33231711 138.19244471 -78 142 C-74.18911811 141.78431617 -74.18911811 141.78431617 -71 141 C-66.24930064 130.50887225 -67.27603345 120.74419521 -71.18652344 110.02197266 C-76.18925969 97.58720024 -83.40755146 86.47006237 -91.3359375 75.734375 C-98.03502693 66.54118508 -98.03502693 66.54118508 -97.9375 62.25 C-96.90554482 59.77330758 -96.07880308 58.67638801 -94 57 C-91.83032227 56.5234375 -91.83032227 56.5234375 -89.31640625 56.375 C-88.39496826 56.31038574 -87.47353027 56.24577148 -86.52416992 56.17919922 C-85.54681885 56.12006348 -84.56946777 56.06092773 -83.5625 56 C-64.54773695 54.50966611 -47.23760788 49.27148449 -33 36 C-31.88625 35.02160156 -31.88625 35.02160156 -30.75 34.0234375 C-21.45372144 25.40501259 -14.85227039 14.2030213 -9.15625 2.9765625 C-6.97138626 -0.75837349 -4.01497195 -0.4014972 0 0 Z " fill="#FC6143" transform="translate(259,46)"/>
<path d="M0 0 C3.46540257 2.8550577 5.20913633 6.01396357 7.1875 10 C17.5731072 29.73265367 33.00519633 44.20579177 54 52 C64.17068634 55.08565037 74.23680432 56.44847415 84.83984375 56.62890625 C88 57 88 57 89.8828125 58.38671875 C91.50755239 60.73293404 91.9344835 62.11727391 92 65 C89.65904625 69.53733554 86.91583099 73.59409763 83.88842773 77.6953125 C78.85655632 84.52677399 74.39188126 91.49009866 70.4375 99 C70.03257324 99.7640918 69.62764648 100.52818359 69.21044922 101.31542969 C63.91406945 111.64774835 59.52529884 123.82058525 62.671875 135.4921875 C63.37537488 137.35712586 64.17778364 139.1842722 65 141 C73.33202412 142.84215019 79.14289189 139.35648794 86 135 C92.50471727 130.27167138 96.9930779 125.23135957 100.6484375 118.06640625 C102.21222835 115.6755237 103.33605208 114.95695216 106 114 C108.8125 113.875 108.8125 113.875 112 115 C113.51953125 116.64453125 113.51953125 116.64453125 115.125 118.6875 C121.51801572 126.60063279 131.96476305 130.17588654 141.8046875 131.51953125 C152.34104666 132.38981386 161.69422497 131.13591192 172 129 C179.95449293 127.55565949 179.95449293 127.55565949 183.5 129.0625 C185.61625299 131.79599345 185.82117683 133.53083049 186 137 C185.06921939 139.98006542 183.69779373 142.70762275 182.3125 145.5 C175.5192976 160.00919364 170.31718517 175.20180639 174.91015625 191.203125 C176.9509609 196.44045879 180.12171044 200.71166131 183.6640625 205.02734375 C185.70781803 208.0451699 185.38631335 210.45879433 185 214 C182.54000517 217.59888133 178.44073617 218.42361926 174.5 219.75 C166.68731042 222.52047611 157.10142176 226.12265667 152 233 C152.57899303 241.4294574 163.59321046 250.35356184 169.36669922 255.61376953 C176.11279649 261.33938094 183.7690277 266.10021633 191.8125 269.75 C195.1170605 271.31155604 195.83422032 271.71580626 197.75 275 C198.04557416 278.54688986 197.76822967 279.91261485 196 283 C193.54409626 284.60600865 191.22755521 285.93777721 188.625 287.25 C175.70886912 294.1618362 163.21085391 301.88932218 158.5690918 316.53417969 C157.61688752 320.6599897 157.76161654 324.66707127 157.9375 328.875 C157.99746669 330.53875681 158.04863437 332.20286045 158.08984375 333.8671875 C158.11941162 334.59019043 158.14897949 335.31319336 158.17944336 336.05810547 C158 338 158 338 156 341 C139.25386813 346.58204396 117.43737427 336.99434326 101.2578125 332.15625 C88.36566083 327.75968554 88.36566083 327.75968554 75 327 C71.47755907 328.91437007 70.29133726 330.33408627 68.6875 334 C67.63746049 338.39107431 67.98974011 342.85159042 68.22265625 347.328125 C68 350 68 350 66.99609375 351.859375 C63.71884611 353.73208794 60.60846927 353.61340848 57 353 C53.7371127 351.80313304 50.77452441 350.20267927 47.75 348.5 C46.91662109 348.04439697 46.08324219 347.58879395 45.22460938 347.11938477 C30.58265709 339.0087526 17.85039262 329.20700529 6.21484375 317.1875 C4.19890191 314.97014707 4.19890191 314.97014707 2 314 C1.98786972 315.92559502 1.98786972 315.92559502 1.97549438 317.89009094 C1.89810563 329.97120149 1.81038485 342.05219842 1.71247292 354.13316059 C1.66246609 360.34452888 1.61613643 366.55587979 1.578125 372.76733398 C1.54132766 378.75851866 1.49498284 384.74955949 1.44193649 390.74062157 C1.42336299 393.02959871 1.40826605 395.31860672 1.39665604 397.60762978 C1.37984421 400.80668585 1.3508213 404.00541036 1.31884766 407.2043457 C1.31560738 408.63285606 1.31560738 408.63285606 1.31230164 410.09022522 C1.30113815 410.96100708 1.28997467 411.83178894 1.2784729 412.72895813 C1.27294214 413.48575017 1.26741138 414.24254221 1.26171303 415.02226734 C1 417 1 417 -1 420 C-2.65 419.67 -4.3 419.34 -6 419 C-6.33 384.35 -6.66 349.7 -7 314 C-11.26098039 316.55658823 -13.52632859 318.41327522 -16.8125 321.9375 C-28.44344638 333.90633312 -42.27475541 342.35952513 -57 350 C-58.07636719 350.57878906 -59.15273437 351.15757812 -60.26171875 351.75390625 C-64.23941039 353.56401129 -66.66621591 353.42627385 -71 353 C-72.73828125 351.8671875 -72.73828125 351.8671875 -74 350 C-74.1875 347.109375 -74.1875 347.109375 -74 343.75 C-73.88267498 338.20484906 -74.03067401 334.70996536 -77 330 C-79.21135457 327.85565617 -80.7159375 327.04789607 -83.81958008 326.93212891 C-93.06674837 327.64431787 -101.8008318 330.69124638 -110.625 333.375 C-146.5937928 344.30079502 -146.5937928 344.30079502 -160 342 C-162.38671875 340.546875 -162.38671875 340.546875 -164 338 C-164.40354906 334.91901394 -164.23755312 331.90830236 -164.0625 328.8125 C-163.52751524 318.7436077 -165.25673447 311.11691863 -171.8125 303.25 C-179.01982972 295.83674657 -187.78845084 290.74492542 -196.83178711 285.91796875 C-201.90315818 283.19368364 -201.90315818 283.19368364 -203 281 C-203.46730852 274.57450788 -203.46730852 274.57450788 -201.69946289 272.40112305 C-198.89058168 270.0853395 -195.63552823 268.52081848 -192.4375 266.8125 C-179.35367168 259.60827101 -165.54162679 249.19784688 -158 236 C-158.22892084 233.49161208 -158.68034686 232.33454109 -160.42578125 230.5078125 C-168.84832927 224.33476488 -178.01214447 220.09045931 -187.91796875 216.859375 C-190 216 -190 216 -191 214 C-191.79529004 209.84681869 -191.63340475 207.98987906 -189.3203125 204.375 C-187.87951583 202.47504835 -186.43139488 200.58063204 -184.9765625 198.69140625 C-179.45088255 191.16730846 -178.47824687 182.59196592 -179.33203125 173.44140625 C-181.19780923 161.48838989 -185.34921874 149.57952342 -191.12280273 138.92871094 C-192.46194453 135.98431345 -191.90580566 134.040919 -191 131 C-189.5 129.0625 -189.5 129.0625 -187 128 C-182.52705707 127.94621712 -178.25282797 128.91703455 -173.9375 130 C-158.15405783 133.58963702 -141.94815425 132.51174275 -127.55078125 124.7578125 C-124.24068032 122.47673223 -121.98725615 119.78472619 -119.51953125 116.64453125 C-118 115 -118 115 -114.8125 113.875 C-111.77185402 114.01013982 -110.52817963 114.3600997 -108 116 C-106.39453125 118.3203125 -106.39453125 118.3203125 -104.8125 121.125 C-98.52753498 131.28171562 -89.33231711 138.19244471 -78 142 C-74.18911811 141.78431617 -74.18911811 141.78431617 -71 141 C-66.24930064 130.50887225 -67.27603345 120.74419521 -71.18652344 110.02197266 C-76.18925969 97.58720024 -83.40755146 86.47006237 -91.3359375 75.734375 C-98.03502693 66.54118508 -98.03502693 66.54118508 -97.9375 62.25 C-96.90554482 59.77330758 -96.07880308 58.67638801 -94 57 C-91.83032227 56.5234375 -91.83032227 56.5234375 -89.31640625 56.375 C-88.39496826 56.31038574 -87.47353027 56.24577148 -86.52416992 56.17919922 C-85.54681885 56.12006348 -84.56946777 56.06092773 -83.5625 56 C-64.54773695 54.50966611 -47.23760788 49.27148449 -33 36 C-31.88625 35.02160156 -31.88625 35.02160156 -30.75 34.0234375 C-21.45372144 25.40501259 -14.85227039 14.2030213 -9.15625 2.9765625 C-6.97138626 -0.75837349 -4.01497195 -0.4014972 0 0 Z M-4 7 C-4.44988281 7.92039062 -4.89976562 8.84078125 -5.36328125 9.7890625 C-17.17411379 33.29490442 -34.62748245 49.67799032 -59.41796875 58.81640625 C-69.64833098 62.19677676 -80.3200011 62.48497467 -91 63 C-89.48765045 67.58890064 -86.85457012 71.0391062 -83.9375 74.8125 C-72.59690353 89.8858712 -61.65393424 107.65282789 -61.625 126.9375 C-61.60050781 127.79279297 -61.57601562 128.64808594 -61.55078125 129.52929688 C-61.5235049 135.4891797 -62.57182285 140.05178898 -66 145 C-69.16127141 147.81001903 -70.99861151 148.9037595 -75.2109375 149.30859375 C-79.74464655 148.93935353 -82.82466087 147.64193538 -86.8125 145.5625 C-87.51101074 145.20414063 -88.20952148 144.84578125 -88.92919922 144.4765625 C-97.53060264 139.88278918 -104.21311694 133.75350797 -109.74609375 125.7265625 C-111.0265619 123.96342567 -112.42284042 122.49899132 -114 121 C-114.65742188 121.76183594 -114.65742188 121.76183594 -115.328125 122.5390625 C-123.83409755 131.77115465 -135.42151289 137.06510383 -147.92407227 138.28540039 C-150.91427878 138.40024615 -153.88294867 138.41523453 -156.875 138.375 C-158.44447388 138.36738647 -158.44447388 138.36738647 -160.0456543 138.35961914 C-166.9327977 138.24790684 -173.09704512 137.56567456 -179.70703125 135.55859375 C-182.13891724 134.75086931 -182.13891724 134.75086931 -185 136 C-184.54109375 137.00417969 -184.0821875 138.00835937 -183.609375 139.04296875 C-175.20015081 157.68990784 -169.19497465 175.75941179 -176 196 C-178.22809353 201.56071205 -181.41802705 206.22403607 -185 211 C-184.04480469 211.36351562 -183.08960938 211.72703125 -182.10546875 212.1015625 C-157.62536691 221.56194964 -157.62536691 221.56194964 -152 230 C-151.13718855 236.25538298 -152.33453743 239.54432001 -156.05078125 244.5859375 C-167.76307069 259.09133805 -180.71735199 268.34657731 -197 277 C-194.33724405 280.10177664 -190.97801333 281.77754221 -187.4375 283.6875 C-177.96553949 288.96643159 -169.50089359 295.20564396 -163 304 C-162.23816406 304.98419922 -162.23816406 304.98419922 -161.4609375 305.98828125 C-156.01899232 314.54642409 -157.56356062 325.26941624 -158 335 C-139.99367932 335.93674501 -123.71946977 330.59119521 -106.8203125 325.15625 C-84.45727109 317.99512182 -84.45727109 317.99512182 -75.0859375 322.6328125 C-71.34279258 325.08618464 -69.42221729 327.76552499 -68 332 C-67.33220333 336.66955565 -67.07282791 341.28604822 -67 346 C-61.9614993 345.4136656 -58.04118462 343.12373947 -53.6875 340.6875 C-52.90076904 340.24889648 -52.11403809 339.81029297 -51.3034668 339.35839844 C-39.86883354 332.81777446 -26.60070195 324.34936459 -18.4375 313.8125 C-14.99281353 309.83786176 -11.13175398 307.98687577 -6 307 C-5.9175 305.7625 -5.835 304.525 -5.75 303.25 C-5.70359375 302.55390625 -5.6571875 301.8578125 -5.609375 301.140625 C-6.18806521 297.96940265 -7.47265317 296.97108868 -10 295 C-12.5041622 293.91159878 -14.85327918 293.00848902 -17.4375 292.1875 C-18.09298828 291.95869141 -18.74847656 291.72988281 -19.42382812 291.49414062 C-23.29691956 290.22382879 -26.12818593 289.56999202 -30 291 C-31.80574071 292.33120935 -31.80574071 292.33120935 -33.4375 294.0625 C-42.08840818 301.9965721 -53.15717637 306.83092623 -64 311 C-64.86882812 311.37125 -65.73765625 311.7425 -66.6328125 312.125 C-69.52109556 313.19261618 -71.94578334 313.14205659 -75 313 C-75 311.68 -75 310.36 -75 309 C-73.87078125 308.70609375 -73.87078125 308.70609375 -72.71875 308.40625 C-59.88464574 304.79276434 -46.04347333 298.9958548 -36 290 C-35.67 289.01 -35.34 288.02 -35 287 C-51.42641193 283.57473664 -51.42641193 283.57473664 -68 281 C-68.82757813 280.83371094 -69.65515625 280.66742188 -70.5078125 280.49609375 C-73.07569512 280.15225862 -74.56716816 280.08361784 -77 281 C-79.3248061 283.51440194 -81.11182868 286.17216313 -82.9765625 289.04296875 C-90.74736038 300.39913477 -104.12996128 307.13898838 -117 311 C-119.52366095 311.32683478 -121.46343027 311.29494997 -124 311 C-123.859375 309.11328125 -123.859375 309.11328125 -123 307 C-120.515625 305.98046875 -120.515625 305.98046875 -117.25 305.1875 C-103.02677338 301.17941969 -90.96910617 293.59632911 -83 281 C-83 280.67 -83 280.34 -83 280 C-88.38195986 279.09517952 -93.5446932 278.86695558 -98.99609375 278.90234375 C-99.82963882 278.9037587 -100.6631839 278.90517365 -101.52198792 278.90663147 C-104.16052986 278.91218832 -106.79898409 278.9247326 -109.4375 278.9375 C-111.23632689 278.94252058 -113.03515513 278.94708251 -114.83398438 278.95117188 C-119.22268958 278.96214357 -123.61132996 278.97937804 -128 279 C-128.5724646 280.21236328 -128.5724646 280.21236328 -129.15649414 281.44921875 C-129.67332764 282.51785156 -130.19016113 283.58648437 -130.72265625 284.6875 C-131.22804932 285.74324219 -131.73344238 286.79898437 -132.25415039 287.88671875 C-136.2746876 295.05633007 -142.52925244 300.63083933 -150 304 C-151.32 304 -152.64 304 -154 304 C-153.66443166 301.14145488 -153.2435587 300.19596677 -150.9609375 298.359375 C-150.10757813 297.82828125 -149.25421875 297.2971875 -148.375 296.75 C-141.25600686 291.98700603 -136.4552461 287.3218678 -134 279 C-154.01831909 279.66538863 -154.01831909 279.66538863 -174 281 C-174.495 279.02 -174.495 279.02 -175 277 C-171.04238175 275.02119087 -166.17146122 275.32843673 -161.8125 275 C-160.11407959 274.86972412 -160.11407959 274.86972412 -158.38134766 274.73681641 C-144.27177806 273.71793 -130.13926437 273.34901255 -116 273 C-123.62157821 265.07875426 -134.46890166 261.43298843 -144.93261719 258.77368164 C-146.89453125 258.23828125 -146.89453125 258.23828125 -150 257 C-150.94921875 254.85546875 -150.94921875 254.85546875 -151 253 C-136.79126557 253.5074548 -119.48561495 260.95113056 -109.12109375 270.7109375 C-105.24082275 273.55679333 -102.30916642 273.6181365 -97.6875 273.5625 C-71.26890304 274.11687727 -41.99526652 277.19170436 -17.4140625 287.1796875 C-16.21910156 287.58574219 -16.21910156 287.58574219 -15 288 C-14.34 287.67 -13.68 287.34 -13 287 C-26.7427715 269.98106842 -26.7427715 269.98106842 -41.84375 254.18359375 C-44 252 -44 252 -45.71875 249.16015625 C-46.4715625 248.44730469 -47.224375 247.73445312 -48 247 C-51.71353678 247.0812686 -51.71353678 247.0812686 -54.35058594 247.58837891 C-73.43951159 250.55409294 -93.75729891 247.79044133 -112 242 C-112.33 240.68 -112.66 239.36 -113 238 C-108.94776898 238.4306062 -105.05577379 238.91856986 -101.1171875 239.97265625 C-86.17321216 243.88482179 -71.32058823 243.39655082 -56 243 C-55.67672065 239.86084746 -55.67672065 239.86084746 -58.01953125 237.6171875 C-63.53006249 232.20684774 -69.09502826 227.06474954 -75.17578125 222.28515625 C-77.22019873 220.63095953 -79.13008495 218.97620096 -81.04296875 217.18359375 C-86.02237442 212.32115813 -86.02237442 212.32115813 -92.1953125 209.48828125 C-94.59221011 209.72068007 -96.68733922 210.31899227 -99 211 C-100.97779971 211.38104398 -102.95600107 211.76053777 -104.93847656 212.11645508 C-106.97522821 212.48424092 -109.00451768 212.88131387 -111.03515625 213.28125 C-119.43862843 214.84113299 -127.46090525 215.1260786 -136 215.0625 C-137.73443359 215.05573242 -137.73443359 215.05573242 -139.50390625 215.04882812 C-142.33599225 215.03712529 -145.16796811 215.02072996 -148 215 C-148 213.68 -148 212.36 -148 211 C-147.02111816 210.97812622 -147.02111816 210.97812622 -146.02246094 210.95581055 C-134.53255588 210.67107822 -123.12677265 210.28837147 -111.75 208.5625 C-110.52941895 208.37917114 -110.52941895 208.37917114 -109.28417969 208.19213867 C-105.28259337 207.53837632 -101.71040338 206.71420636 -98 205 C-101.96804507 200.87849463 -106.18822709 197.40816976 -110.77050781 193.9675293 C-113.63854356 191.81089773 -116.46084415 189.63650072 -119.19921875 187.31640625 C-124.33122258 182.84399528 -124.33122258 182.84399528 -130.57421875 180.62890625 C-132.85701476 180.86661889 -134.8126344 181.31985945 -137 182 C-140.42487159 182.79105121 -143.5699178 183.11920296 -147.08203125 183.09765625 C-148.01337891 183.09443359 -148.94472656 183.09121094 -149.90429688 183.08789062 C-150.86400391 183.07951172 -151.82371094 183.07113281 -152.8125 183.0625 C-153.79154297 183.05798828 -154.77058594 183.05347656 -155.77929688 183.04882812 C-158.18626111 183.03708684 -160.59309857 183.02066419 -163 183 C-163 181.68 -163 180.36 -163 179 C-161.87722656 178.95101562 -160.75445312 178.90203125 -159.59765625 178.8515625 C-151.86613308 178.47797144 -144.50489083 178.04678841 -137 176 C-141.19451364 171.47633942 -145.90327022 168.04245394 -150.9375 164.5 C-162.31399683 156.45525819 -162.31399683 156.45525819 -166 153 C-166 152.01 -166 151.02 -166 150 C-160.58436258 150.39289919 -157.0625867 153.54590121 -152.875 156.6875 C-152.09382813 157.26258301 -151.31265625 157.83766602 -150.5078125 158.43017578 C-147.99938362 160.27904364 -145.49971747 162.13937665 -143 164 C-139.66892635 166.46140028 -136.33419154 168.9178256 -133 171.375 C-132.20335937 171.96321533 -131.40671875 172.55143066 -130.5859375 173.1574707 C-122.25402448 180.55567138 -122.25402448 180.55567138 -113 185 C-114.07254135 171.32509782 -119.45733028 159.31400457 -127 148 C-127 147.01 -127 146.02 -127 145 C-125.68 145 -124.36 145 -123 145 C-121.26691822 147.26093943 -119.88987548 149.35153865 -118.5 151.8125 C-118.10417725 152.49449463 -117.70835449 153.17648926 -117.30053711 153.87915039 C-114.18329382 159.38126869 -111.77361151 164.92045387 -110 171 C-109.78859375 171.68191406 -109.5771875 172.36382812 -109.359375 173.06640625 C-108.52322835 176.02278189 -107.9569351 178.42221257 -108.1875 181.515625 C-108.36338712 185.36315584 -108.3428359 188.44696334 -105.71484375 191.48632812 C-102.10311553 194.82391312 -98.11311416 197.65442388 -94.1015625 200.48730469 C-90.73875028 202.90784192 -87.53809569 205.52620749 -84.3125 208.125 C-79.46119174 212.0360729 -79.46119174 212.0360729 -74 215 C-73.7895795 197.25453772 -76.06865281 183.32094468 -84.08203125 167.26953125 C-85 165 -85 165 -85 161 C-83.21875 161.0859375 -83.21875 161.0859375 -81 162 C-79.6099102 164.22536305 -78.54507065 166.24294944 -77.5 168.625 C-77.04826416 169.62249268 -77.04826416 169.62249268 -76.58740234 170.64013672 C-73.5665433 177.55772517 -71.6486227 184.64324279 -70 192 C-69.81622803 192.77859375 -69.63245605 193.5571875 -69.44311523 194.359375 C-68.96988908 197.17943787 -69.01228245 199.64060393 -69.18359375 202.4921875 C-69.22291016 203.52730469 -69.26222656 204.56242188 -69.30273438 205.62890625 C-69.39230873 207.78647975 -69.5093536 209.94309402 -69.65429688 212.09765625 C-69.8998605 218.03026829 -69.8998605 218.03026829 -67.34179688 223.18334961 C-65.31089749 224.96275248 -63.24046043 226.49650129 -61 228 C-53.29259317 234.66342698 -46.1294457 241.80014247 -38.98095703 249.0559082 C-38.22282715 249.82249756 -37.46469727 250.58908691 -36.68359375 251.37890625 C-35.99837646 252.0757251 -35.31315918 252.77254395 -34.60717773 253.49047852 C-33.24600262 255.11410248 -33.24600262 255.11410248 -32 255 C-31.79130134 248.24494163 -32.25396304 241.98979102 -33.625 235.375 C-33.79741211 234.5190625 -33.96982422 233.663125 -34.14746094 232.78125 C-35.53872249 226.28065875 -37.52442518 220.16216468 -40.06884766 214.02490234 C-41.44398019 210.69717004 -42 208.68651301 -42 205 C-40.1875 205.08984375 -40.1875 205.08984375 -38 206 C-36.76659916 208.22320502 -35.8669299 210.19790447 -35 212.5625 C-34.61763184 213.57896606 -34.61763184 213.57896606 -34.22753906 214.6159668 C-30.76125319 224.09798524 -28.04160113 233.17587301 -27.734375 243.30078125 C-27.3880985 259.57679445 -27.3880985 259.57679445 -18.68237305 272.68066406 C-17.62419624 273.67265498 -16.55461969 274.65266103 -15.47265625 275.61865234 C-13.29800094 277.65847326 -11.57799775 279.98054367 -9.8125 282.375 C-8.89701715 283.60009871 -7.96794368 284.81591355 -7 286 C-6.67 286 -6.34 286 -6 286 C-5.67465168 275.61256733 -5.42639636 265.22635823 -5.27462959 254.83485603 C-5.20175805 250.00850803 -5.10307061 245.18566074 -4.94384766 240.36132812 C-4.79094812 235.69904544 -4.70787422 231.04011222 -4.6717186 226.37551498 C-4.64598176 224.60253011 -4.59571124 222.82971543 -4.51977921 221.05817032 C-3.86548025 211.66942486 -3.86548025 211.66942486 -7.35332489 203.30617523 C-10.65775975 200.28230603 -14.33900357 198.11534811 -18.27018356 196.00915146 C-32.91152417 187.46759183 -44.56963762 169.63839936 -50 154 C-50 152.68 -50 151.36 -50 150 C-48.68 150 -47.36 150 -46 150 C-45.6596875 150.87140625 -45.319375 151.7428125 -44.96875 152.640625 C-37.41516875 171.20314914 -25.55918847 185.71281122 -9 197 C-8.01 197.33 -7.02 197.66 -6 198 C-6 185.13 -6 172.26 -6 159 C-9.63 157.02 -13.26 155.04 -17 153 C-29.62009856 144.1625835 -39.26659017 128.08883039 -42.65625 113.09765625 C-42.7696875 112.40542969 -42.883125 111.71320313 -43 111 C-40.6796875 111.0703125 -40.6796875 111.0703125 -38 112 C-36.77834254 114.35123019 -35.94000203 116.38682899 -35.125 118.875 C-30.22617569 132.26098977 -21.91469775 145.07016218 -9 152 C-8.01 152 -7.02 152 -6 152 C-5.77138998 145.41702207 -5.61403347 138.83506976 -5.50561523 132.24902344 C-5.46041409 130.01002762 -5.3990381 127.77129662 -5.32104492 125.53320312 C-5.21157149 122.31053415 -5.16077442 119.0913793 -5.12109375 115.8671875 C-5.07464218 114.87008759 -5.02819061 113.87298767 -4.98033142 112.84567261 C-4.9782492 109.96477908 -5.07727704 107.73252541 -6 105 C-8.70755131 102.35837394 -11.68268747 100.76168461 -15 99 C-17.6875 96.5625 -17.6875 96.5625 -20 94 C-20.46921875 93.53464844 -20.9384375 93.06929688 -21.421875 92.58984375 C-26.52860731 87.2330395 -29.16132957 80.75466758 -32 74 C-32.38414062 73.10152344 -32.76828125 72.20304687 -33.1640625 71.27734375 C-34.10297803 68.71945706 -34.15448822 66.70354384 -34 64 C-32.68 63.67 -31.36 63.34 -30 63 C-29.58041016 64.43279297 -29.58041016 64.43279297 -29.15234375 65.89453125 C-25.66460531 77.32837674 -20.85336303 88.55571912 -11 96 C-9.35 96.66 -7.7 97.32 -6 98 C-5.505 74.735 -5.505 74.735 -5 51 C-3.68 51 -2.36 51 -1 51 C-0.67 61.89 -0.34 72.78 0 84 C9.1954921 79.40225395 13.15973869 74.87182474 16.76171875 65.2578125 C18 63 18 63 20.14453125 62.1796875 C20.75683594 62.12039062 21.36914062 62.06109375 22 62 C21.24933105 71.00802739 17.41076159 77.70579771 11 84 C7.37 85.98 3.74 87.96 0 90 C0 102.54 0 115.08 0 128 C12.84048958 123.71983681 21.20377622 114.89699512 27.5625 103.1015625 C30.17369324 97.55277687 32.17784352 91.85008133 34 86 C35.32 86 36.64 86 38 86 C36.98814633 100.84052046 27.45629954 114.97649431 17 125 C11.51532742 129.43064536 6.7638616 131.4635519 0 134 C0 148.19 0 162.38 0 177 C6.90310126 175.61937975 10.08133538 171.82585962 15 167 C15.63421875 166.401875 16.2684375 165.80375 16.921875 165.1875 C26.54095648 155.30367315 31.13616251 140.92899468 35 128 C36.32 128.33 37.64 128.66 39 129 C35.88373227 146.76272607 26.92469764 166.27895247 12.12109375 177.10546875 C8.17271997 179.65535062 4.20502571 181.89748715 0 184 C0 196.87 0 209.74 0 223 C18.97645517 212.15631133 33.00612608 195.78598894 40 175 C41.65 175 43.3 175 45 175 C37.27444681 196.50165025 25.29234829 213.39402997 6 226 C4.45711304 226.64859985 4.45711304 226.64859985 2.88305664 227.31030273 C-0.49251034 230.45947891 -0.45813084 231.16181878 -0.68115234 235.59472656 C-0.68020266 237.94357362 -0.64631714 240.29255394 -0.5859375 242.640625 C-0.57744781 243.87794373 -0.56895813 245.11526245 -0.56021118 246.39007568 C-0.53232003 249.67221907 -0.47846466 252.95258509 -0.4119873 256.23413086 C-0.35049417 259.5856081 -0.32369382 262.93716174 -0.29296875 266.2890625 C-0.22679468 272.86006992 -0.12637399 279.42988962 0 286 C2.67673741 283.35217753 5.32987447 280.72643398 7.75390625 277.84375 C8.44709961 277.02197266 8.44709961 277.02197266 9.15429688 276.18359375 C9.85135742 275.35021484 9.85135742 275.35021484 10.5625 274.5 C11.03107422 273.94441406 11.49964844 273.38882812 11.98242188 272.81640625 C12.90265148 271.722427 13.81586768 270.62250387 14.72143555 269.51635742 C15.85499113 268.17197825 17.07486667 266.90144983 18.3046875 265.64453125 C20.73080263 261.86001526 20.54654497 258.59419105 20.5625 254.1875 C20.75665006 247.69292845 21.15872547 241.34808962 22.25 234.9375 C22.46140625 233.64714844 22.6728125 232.35679687 22.890625 231.02734375 C24 228 24 228 26.609375 226.56640625 C27.79273438 226.28603516 27.79273438 226.28603516 29 226 C28.7834375 227.25554687 28.566875 228.51109375 28.34375 229.8046875 C26.92228795 238.26673638 25.57646828 246.3881883 26 255 C32.95992471 249.24885462 39.19819005 242.8581673 45.52929688 236.43164062 C50.51776537 231.3975111 55.61028365 226.60050473 61 222 C62.6318867 220.3681133 62.14751994 218.50114523 62.17578125 216.25 C62.5523188 198.26960223 64.8370366 183.58105449 72.51171875 167.29296875 C73.64052678 164.79536988 74.49559014 162.67000952 75 160 C76.65 160 78.3 160 80 160 C78.47071942 164.84272184 76.79649905 169.515826 74.79394531 174.18530273 C69.11879349 187.60358144 67.43726969 200.49406319 68 215 C72.18487211 213.17582498 75.29441458 210.33538752 78.71240234 207.36010742 C81.85327788 204.67268465 85.04446722 202.25526371 88.49609375 199.9765625 C97.03011425 194.56110058 97.03011425 194.56110058 102.3515625 186.36328125 C102.80042314 182.6212315 102.80042314 182.6212315 102.8515625 178.82421875 C103.28146257 167.74863528 109.15241176 154.74105014 116 146 C118.75 145.1171875 118.75 145.1171875 121 145 C120.43387344 148.82135431 119.36224446 151.34513795 117.25 154.5625 C111.5959045 163.68244731 106.79432677 174.09931859 107 185 C115.67707327 179.77904914 123.6638245 173.83256292 131.72021484 167.71923828 C135.89358753 164.57200221 140.10353408 161.47438049 144.3125 158.375 C145.54033203 157.46899048 145.54033203 157.46899048 146.79296875 156.54467773 C147.55867188 155.98079346 148.324375 155.41690918 149.11328125 154.8359375 C149.79173096 154.33626465 150.47018066 153.8365918 151.16918945 153.32177734 C155.77022534 150 155.77022534 150 160 150 C159.63824282 152.71076717 159.18650978 153.82235974 157.17749023 155.73583984 C156.39575439 156.30512207 155.61401855 156.8744043 154.80859375 157.4609375 C153.94556641 158.09773437 153.08253906 158.73453125 152.19335938 159.390625 C150.82920898 160.37289062 150.82920898 160.37289062 149.4375 161.375 C148.55513672 162.02210938 147.67277344 162.66921875 146.76367188 163.3359375 C145.01834076 164.61558899 143.27017655 165.89138637 141.51904297 167.16308594 C137.98569519 169.73964232 134.48967446 172.36472597 131 175 C136.29852382 178.53234921 142.11822976 178.26427547 148.3125 178.5625 C149.14845703 178.60568359 149.98441406 178.64886719 150.84570312 178.69335938 C152.89696935 178.79885307 154.9484648 178.89987315 157 179 C157 180.32 157 181.64 157 183 C139.66104684 183.36588647 139.66104684 183.36588647 131.4921875 181.4375 C125.38109117 180.30615252 125.38109117 180.30615252 119.63378906 182.39111328 C116.91396026 184.37053848 114.29528365 186.43770858 111.6875 188.5625 C109.90126723 189.98239267 108.11351181 191.40037199 106.32421875 192.81640625 C105.45200684 193.51137207 104.57979492 194.20633789 103.68115234 194.92236328 C99.56659901 198.11074872 95.30053828 201.06942163 91 204 C93.67753583 206.67753583 96.43411097 206.90646377 100.03125 207.55078125 C100.73987183 207.68019608 101.44849365 207.8096109 102.17858887 207.94294739 C110.24635922 209.33261409 118.33413557 209.79038418 126.5 210.1875 C128.01697958 210.26921351 129.53390748 210.35189215 131.05078125 210.43554688 C134.69999691 210.63475554 138.34972309 210.82114671 142 211 C141.67 212.32 141.34 213.64 141 215 C107.68048619 215.5742459 107.68048619 215.5742459 92.39453125 210.5859375 C89.41397698 209.85660122 87.06075934 209.67447177 84 210 C81.39532896 211.51514387 81.39532896 211.51514387 79 213.75 C78.05125 214.57113281 77.1025 215.39226562 76.125 216.23828125 C75.62097656 216.68510254 75.11695313 217.13192383 74.59765625 217.59228516 C72.93670122 219.05577335 71.2535399 220.48938051 69.5625 221.91796875 C62.22985615 228.12297906 55.06043609 234.48710793 48 241 C51.10498122 243.06998748 51.80101903 243.25519803 55.32421875 243.265625 C56.6083667 243.27166748 56.6083667 243.27166748 57.91845703 243.27783203 C58.83224121 243.26864746 59.74602539 243.25946289 60.6875 243.25 C61.62706543 243.24468262 62.56663086 243.23936523 63.53466797 243.23388672 C71.81805141 243.12276645 79.82374007 242.32368966 88 241 C89.10859375 240.82082031 90.2171875 240.64164063 91.359375 240.45703125 C96.32846298 239.70474273 96.32846298 239.70474273 101 238 C102.99960012 237.960008 105.00047242 237.95653201 107 238 C107 238.99 107 239.98 107 241 C92.45589175 246.06951997 79.40221381 248.18363787 64 248.125 C62.98421875 248.12886719 61.9684375 248.13273438 60.921875 248.13671875 C56.04161838 248.13046201 51.40223087 247.94448766 46.57421875 247.21484375 C42.97367582 246.81774091 42.30383726 246.81167784 39.08203125 248.80859375 C38.33308594 249.67613281 37.58414063 250.54367187 36.8125 251.4375 C35.98105469 252.36949219 35.14960938 253.30148437 34.29296875 254.26171875 C33.53628906 255.16535156 32.77960938 256.06898438 32 257 C31.12794922 257.96873047 31.12794922 257.96873047 30.23828125 258.95703125 C28.45369264 260.9403876 26.72907523 262.96799623 25 265 C24.02681777 266.12176753 23.05278318 267.24279588 22.078125 268.36328125 C21.01020711 269.59617269 19.94250023 270.82924692 18.875 272.0625 C18.37178223 272.64032227 17.86856445 273.21814453 17.35009766 273.81347656 C13.98268664 277.72308843 10.94665584 281.76350763 8 286 C10.77494194 287.38747097 11.94982443 286.58939283 14.8828125 285.671875 C15.87627686 285.36797852 16.86974121 285.06408203 17.89331055 284.75097656 C18.95976807 284.4206543 20.02622559 284.09033203 21.125 283.75 C42.90476349 277.2491505 65.30249667 274.1205847 88.05883789 273.79541016 C98.33639821 273.70982167 98.33639821 273.70982167 106.65234375 268.10546875 C115.26517539 260.38114886 130.65366582 252.86550134 142.25 252.75 C143.1575 252.8325 144.065 252.915 145 253 C145 253.99 145 254.98 145 256 C144.46745605 256.17015625 143.93491211 256.3403125 143.38623047 256.515625 C131.92441769 260.22523688 120.98004091 264.09806391 111 271 C110.67 271.66 110.34 272.32 110 273 C110.83845459 273.01981934 111.67690918 273.03963867 112.54077148 273.06005859 C127.1732211 273.4212551 141.78048755 273.82931138 156.375 275 C157.42486084 275.0829834 158.47472168 275.1659668 159.55639648 275.25146484 C166.73070999 275.865355 166.73070999 275.865355 169 277 C169 277.99 169 278.98 169 280 C160.12315619 280.11332141 151.40105725 279.88537941 142.54296875 279.22265625 C137.69032764 278.91769424 132.85962056 278.90907155 128 279 C129.75147672 287.53844899 136.57148986 293.21990725 143.5 297.875 C144.3559375 298.40867187 145.211875 298.94234375 146.09375 299.4921875 C146.7228125 299.98976563 147.351875 300.48734375 148 301 C148 301.99 148 302.98 148 304 C140.7166286 303.81324689 135.98415653 298.88468465 131.0078125 294.07421875 C126.71384029 289.47616696 124.41370028 284.76970916 122 279 C116.39494141 278.97524099 110.78991482 278.95711198 105.18481445 278.94506836 C103.27888433 278.94004636 101.37295805 278.93322752 99.46704102 278.92456055 C96.72411144 278.91240154 93.9812329 278.90675029 91.23828125 278.90234375 C90.38913651 278.89718246 89.53999176 278.89202118 88.66511536 278.88670349 C84.64056952 278.88632373 80.92746608 278.9910776 77 280 C77.5775 280.886875 78.155 281.77375 78.75 282.6875 C79.07484375 283.18636719 79.3996875 283.68523437 79.734375 284.19921875 C87.87786955 295.78610452 100.9646668 303.55849155 114.8125 306.375 C116.20559699 306.60090762 117.60064757 306.81678907 119 307 C118.67 308.32 118.34 309.64 118 311 C103.44530556 310.64579283 90.58557714 303.34545816 80.28515625 293.37109375 C74.34254822 286.90838712 74.34254822 286.90838712 72.9453125 283.203125 C71.23617233 280.80391163 71.23617233 280.80391163 68.79736328 280.62060547 C61.68532593 280.48906662 54.73140155 281.63209897 47.75 282.875 C46.71359375 283.04902344 45.6771875 283.22304688 44.609375 283.40234375 C39.29220079 284.3179286 34.14919631 285.3854215 29 287 C30.50040765 291.20683918 33.49293379 293.0410915 37.125 295.3125 C37.73811035 295.70058838 38.3512207 296.08867676 38.98291016 296.48852539 C43.62295726 299.33904035 48.39256714 301.74581918 53.375 303.9375 C54.0158252 304.21956299 54.65665039 304.50162598 55.31689453 304.79223633 C59.79785344 306.67922946 64.26191467 307.91265669 69 309 C69 310.32 69 311.64 69 313 C53.35551347 312.21777567 37.61419384 303.15613487 26 293 C25.49726563 292.43667969 24.99453125 291.87335938 24.4765625 291.29296875 C22.88812745 289.60980639 22.88812745 289.60980639 19.5 290.0625 C12.40254199 291.27169655 4.6184735 293.17345357 0 299 C-0.47800058 301.1253849 -0.47800058 301.1253849 -0.25 303.25 C-0.1675 304.4875 -0.085 305.725 0 307 C1.093125 307.268125 2.18625 307.53625 3.3125 307.8125 C8.08057681 309.59845211 10.85758495 312.68584882 14.31347656 316.32324219 C25.7087441 328.09962235 39.49824419 336.58816282 54 344 C54.67506592 344.36971924 55.35013184 344.73943848 56.0456543 345.12036133 C58.09874768 346.20521786 58.09874768 346.20521786 61 346 C61.01417969 345.0821875 61.02835937 344.164375 61.04296875 343.21875 C61.58302097 329.32335223 61.58302097 329.32335223 67 324 C71.90770918 320.39895553 75.90759493 319.59632382 82 320 C85.20086289 320.6802745 88.30851493 321.609142 91.4375 322.5625 C92.33839355 322.82772461 93.23928711 323.09294922 94.16748047 323.36621094 C97.11444749 324.23501375 100.05737859 325.11659846 103 326 C106.16815427 326.94675379 109.33710721 327.89052866 112.50805664 328.82788086 C114.52853996 329.42562234 116.54737981 330.02895879 118.56420898 330.63891602 C127.53492854 333.30023717 136.29616439 335.31096704 145.6875 335.125 C146.88761719 335.10695313 148.08773438 335.08890625 149.32421875 335.0703125 C150.20722656 335.04710937 151.09023438 335.02390625 152 335 C151.95286865 334.14003418 151.95286865 334.14003418 151.90478516 333.26269531 C151.27828426 320.08238527 151.37361013 310.3658172 159.875 299.6328125 C168.26947108 290.44341045 180.01282744 283.65735173 191 278 C189.55852148 275.11704297 187.60172764 274.76421064 184.6875 273.4375 C177.7833452 270.06741969 171.9565394 265.82156597 166 261 C165.20722656 260.37351562 164.41445313 259.74703125 163.59765625 259.1015625 C156.5763431 253.25252483 146.55201771 243.6121801 145.625 234.1875 C145.6946516 230.96030909 145.8876686 230.15351958 147.875 227.4375 C149.421875 226.2309375 149.421875 226.2309375 151 225 C151.6703125 224.45601562 152.340625 223.91203125 153.03125 223.3515625 C159.1796474 218.65828582 165.59450677 215.92171576 172.77734375 213.26171875 C176.07963439 212.10087618 176.07963439 212.10087618 179 210 C178.41992188 209.29037109 178.41992188 209.29037109 177.828125 208.56640625 C168.67269346 196.94082116 165.78544401 184.69766491 167 170 C168.74636998 160.17013304 172.34379384 151.3648971 176.51171875 142.36328125 C177.62594759 139.84529953 178.49067573 137.68244116 179 135 C173.7097186 135.60741464 173.7097186 135.60741464 168.46484375 136.51171875 C151.65590599 139.84513679 133.6249759 139.55249697 118.5234375 130.76171875 C114.52582791 127.97081794 111.2243018 124.64004272 108 121 C105.28107581 124.33276915 105.28107581 124.33276915 102.78515625 127.83203125 C95.94352501 137.88625455 84.08939827 145.39307135 72.453125 148.73046875 C68.52685296 149.39582693 66.4138934 149.17180481 62.6875 147.625 C56.53064815 141.61133076 55.54531822 135.29056992 55.375 126.9375 C55.44514283 117.34009068 57.78463694 109.54943833 62 101 C62.3108252 100.36562012 62.62165039 99.73124023 62.94189453 99.07763672 C67.87296102 89.27269714 74.05999049 80.35553686 80.47851562 71.47363281 C81.35733398 70.25305176 81.35733398 70.25305176 82.25390625 69.0078125 C83.04776733 67.91944092 83.04776733 67.91944092 83.85766602 66.80908203 C85.17797047 65.07474605 85.17797047 65.07474605 85 63 C83.83726562 62.98582031 82.67453125 62.97164062 81.4765625 62.95703125 C57.11114583 62.36137512 35.42330934 54.43556202 18 37 C9.75050713 28.3094965 3.1708687 17.8019718 -2 7 C-2.66 7 -3.32 7 -4 7 Z " fill="#423553" transform="translate(259,46)"/>
</svg>
